<?xml version="1.0" standalone="no"?>
<!DOCTYPE svg PUBLIC "-//W3C//DTD SVG 20010904//EN"
 "http://www.w3.org/TR/2001/REC-SVG-20010904/DTD/svg10.dtd">
<svg version="1.0" xmlns="http://www.w3.org/2000/svg"
 width="264.000000pt" height="306.000000pt" viewBox="0 0 264.000000 306.000000"
 preserveAspectRatio="xMidYMid meet">

<g transform="translate(0.000000,306.000000) scale(0.100000,-0.100000)"
fill="#000000" stroke="none">
<path d="M1289 3031 c-36 -7 -117 -53 -849 -479 -353 -206 -375 -221 -397
-262 l-23 -43 0 -690 c0 -707 2 -748 39 -781 9 -8 282 -168 606 -356 624 -362
635 -367 705 -338 19 8 231 129 470 268 239 139 494 286 565 328 72 41 140 84
152 95 54 48 54 43 51 807 -3 643 -5 708 -20 732 -16 24 -99 74 -903 536 -345
199 -335 194 -396 183z m208 -546 c78 -16 193 -54 244 -80 75 -39 187 -122
249 -186 61 -63 135 -159 142 -186 2 -7 -64 -52 -151 -102 l-154 -89 -42 57
c-135 184 -356 271 -581 230 -32 -6 -97 -28 -142 -50 -153 -71 -268 -214 -312
-385 -52 -203 10 -416 165 -563 119 -113 243 -161 413 -161 127 0 241 40 350
121 46 35 116 113 141 156 7 13 35 0 160 -72 83 -48 151 -92 151 -97 0 -24
-95 -140 -175 -216 -103 -98 -206 -161 -330 -201 -131 -44 -209 -54 -354 -48
-312 12 -572 161 -751 428 -103 155 -150 315 -150 513 0 178 40 331 124 475
135 229 369 401 621 454 92 20 294 21 382 2z"/>
</g>
</svg>
