<svg xmlns="http://www.w3.org/2000/svg" xmlns:xlink="http://www.w3.org/1999/xlink" viewBox="0,0,256,256" width="200px" height="200px"><g transform="translate(-38.4,-38.4) scale(1.3,1.3)"><g fill="#000000" fill-rule="nonzero" stroke="none" stroke-width="1" stroke-linecap="butt" stroke-linejoin="miter" stroke-miterlimit="10" stroke-dasharray="" stroke-dashoffset="0" font-family="none" font-weight="none" font-size="none" text-anchor="none" style="mix-blend-mode: normal"><g transform="scale(2.56,2.56)"><path d="M50,14c-19.87042,0 -36,16.12959 -36,36c0,19.87041 16.12958,36 36,36c19.87042,0 36,-16.12959 36,-36c0,-19.87041 -16.12958,-36 -36,-36zM50,16c18.78954,0 34,15.21047 34,34c0,18.78953 -15.21046,34 -34,34c-18.78954,0 -34,-15.21047 -34,-34c0,-18.78953 15.21046,-34 34,-34zM50,19c-17.11521,0 -31,13.88479 -31,31c0,17.11521 13.88479,31 31,31c17.11521,0 31,-13.88479 31,-31c0,-9.09562 -3.92092,-17.28318 -10.16406,-22.95312c-0.13124,-0.12623 -0.32074,-0.17114 -0.49467,-0.11724c-0.17394,0.05391 -0.30482,0.19811 -0.34167,0.37644c-0.03685,0.17833 0.02615,0.3626 0.16447,0.48104c6.04286,5.48806 9.83594,13.40451 9.83594,22.21289c0,16.57479 -13.42521,30 -30,30c-16.57479,0 -30,-13.42521 -30,-30c0,-16.57479 13.42521,-30 30,-30c3.63074,0 7.10806,0.64594 10.32813,1.82617c0.16782,0.06143 0.35567,0.02865 0.49277,-0.08598c0.1371,-0.11463 0.20263,-0.29371 0.17189,-0.46976c-0.03074,-0.17605 -0.15307,-0.32232 -0.32091,-0.38371c-3.32794,-1.21977 -6.92262,-1.88672 -10.67187,-1.88672zM63.48047,22.14063c-0.23125,0.00568 -0.42843,0.16924 -0.47674,0.39547c-0.04831,0.22622 0.06485,0.45605 0.27361,0.55571c0.66975,0.33143 1.32715,0.68755 1.96875,1.06641c0.15409,0.09526 0.34764,0.09974 0.50597,0.0117c0.15832,-0.08804 0.25665,-0.25482 0.25704,-0.43597c0.00038,-0.18115 -0.09724,-0.34835 -0.25519,-0.43705c-0.6624,-0.39114 -1.339,-0.75899 -2.03125,-1.10156c-0.07485,-0.0383 -0.15814,-0.05711 -0.24219,-0.05469zM67.50781,24.51172c-0.01695,-0.00021 -0.0339,0.00044 -0.05078,0.00195c-0.21205,0.01579 -0.39093,0.16396 -0.44591,0.36937c-0.05498,0.20541 0.02596,0.42312 0.20177,0.54273c0.33269,0.23328 0.66032,0.47422 0.98242,0.7207c0.142,0.10887 0.33129,0.13371 0.49657,0.06516c0.16528,-0.06855 0.28143,-0.22007 0.3047,-0.39748c0.02327,-0.17741 -0.04988,-0.35376 -0.1919,-0.46261c-0.3339,-0.25551 -0.67427,-0.50342 -1.01758,-0.74414c-0.08135,-0.05928 -0.17869,-0.09264 -0.2793,-0.0957zM36.16016,38c-1.018,0 -2.13867,0.30311 -3.13867,0.91211c-4.358,2.655 -7.16851,8.71399 -6.60352,13.33398c0.179,1.466 0.7865,3.07139 1.9375,4.15039c0.776,0.719 2.17903,1.60352 3.83203,1.60352c1.79,0 3.3022,-0.69087 4.6582,-1.54687c0.919,-0.589 1.68889,-1.3003 2.33789,-2.0293c0.456,0.964 1.40272,1.61328 2.38672,1.61328c0.771,0 1.49502,-0.38547 2.04102,-1.10547c0.164,0.665 0.63003,1.10547 1.45703,1.10547c0.606,0 1.90156,-0.60495 3.10156,-1.50195l-0.125,0.64063c-0.033,0.136 -0.0442,0.27702 -0.0332,0.41602c0.037,0.304 0.24744,0.44141 0.52344,0.44141c0.578,0 1.4198,-0.55216 1.5918,-1.41016l0.26172,-1.2168c0.338,-1.522 2.56522,-3.81836 3.19922,-3.81836c0.082,0 0.14225,0.05502 0.15625,0.16602c0.047,0.387 -0.7052,1.66003 -1.0332,3.70703c-0.062,0.347 -0.07411,0.70078 -0.03711,1.05078c0.111,0.913 0.65253,1.51953 1.64453,1.51953c0.858,0 2.68914,-0.72234 3.99414,-2.15234c0.099,0.8 0.27139,1.4802 0.52539,1.9082c0.109,0.194 0.35517,0.25 0.57617,0.25c0.276,0 0.66122,-0.11103 1.07422,-0.33203c0.992,-0.554 2.28834,-1.7987 3.52734,-3.5957c0.166,0.027 0.3008,0.02734 0.4668,0.02734c0.496,0 1.05045,-0.17614 1.56445,-0.49414c-0.194,0.624 -0.26536,1.25861 -0.19336,1.84961c0.175,1.438 1.41169,2.54492 2.67969,2.54492c0.743,0 1.46958,-0.38712 2.01758,-1.07812c0.167,0.913 0.75483,1.88189 2.17383,2.46289c0.09,0.055 0.2002,0.05469 0.2832,0.05469c0.276,0 0.44397,-0.19501 0.41797,-0.41602c-0.01,-0.084 -0.08303,-0.22203 -0.20703,-0.33203c-0.34,-0.305 -0.70764,-0.82886 -0.80664,-1.63086c-0.047,-0.387 -0.02053,-0.85911 0.10547,-1.41211c0.309,-1.299 0.37352,-1.65822 0.35352,-1.82422c-0.04,-0.332 -0.27773,-0.4707 -0.55273,-0.4707c-0.579,0 -1.35945,0.58081 -1.56445,1.38281c-0.319,1.217 -1.18372,2.04883 -1.76172,2.04883c-0.716,0 -1.08559,-0.77613 -1.18359,-1.57812c-0.244,-1.992 1.02509,-4.45312 2.87109,-4.45312c0.551,0 1.12831,0.22139 1.19531,0.77539c0.105,0.857 -0.79986,0.66444 -0.75586,1.02344c0.043,0.359 0.66317,0.46875 1.07617,0.46875c0.414,0 1.61831,-0.2775 1.44531,-1.6875c-0.135,-1.106 -1.30039,-1.63086 -2.65039,-1.63086c-1.586,0 -2.93637,0.80397 -3.85937,1.91797c-0.123,0.071 -0.25067,0.19556 -0.38867,0.35156c-0.304,0.359 -0.85431,0.69141 -1.57031,0.69141c-0.082,0 -0.27539,-0.02734 -0.27539,-0.02734c0.467,-0.913 0.79883,-1.85455 0.79883,-2.68555c0,-1.327 -0.82538,-1.99023 -1.73437,-1.99023c-1.156,0 -2.3418,1.02463 -2.3418,3.01563c0,1.19 0.46792,2.15759 1.29492,2.68359c-0.936,1.55 -2.23083,2.82227 -2.42383,2.82227c-0.11,0 -0.13706,-0.1097 -0.16406,-0.2207c-0.138,-0.525 -0.27539,-1.54955 -0.27539,-2.18555c0,-1.134 0.21981,-2.26933 0.63281,-3.48633c0.055,-0.137 0.08203,-0.27572 0.08203,-0.38672c0,-0.331 -0.21944,-0.49805 -0.52344,-0.49805c-0.605,0 -1.51438,0.69016 -1.73438,1.41016c-0.22,0.691 -0.30273,1.63097 -0.30273,2.79297c0,0.214 0.00472,0.42672 0.01172,0.63672c-1.122,1.482 -2.51331,2.01367 -2.94531,2.01367c-0.542,0 -0.64598,-0.44814 -0.58398,-0.74414c0.292,-1.395 0.733,-3.01575 1.125,-4.09375c0.183,-0.526 0.26447,-0.99644 0.23047,-1.27344c-0.061,-0.498 -0.42162,-0.74609 -0.89062,-0.74609c-1.102,0 -2.94295,1.16128 -4.12695,2.73828l0.37695,-1.70898c0.035,-0.165 0.04425,-0.30406 0.03125,-0.41406c-0.04,-0.332 -0.24939,-0.4707 -0.52539,-0.4707c-1.35,0 -1.58889,0.68556 -1.71289,1.35156c-0.031,0.16 -0.42223,2.19098 -0.74023,3.83398c-1.012,0.908 -2.10434,1.49805 -2.40234,1.49805c-0.375,0 -0.49781,-0.29767 -0.50781,-0.51367c-0.013,-0.248 0.26212,-1.44569 0.32813,-1.80469c0.035,-0.165 0.04425,-0.30306 0.03125,-0.41406c-0.037,-0.304 -0.24583,-0.44141 -0.54883,-0.44141c-0.579,0 -1.36636,0.55281 -1.56836,1.38281c-0.319,1.217 -1.15247,2.04688 -1.73047,2.04688c-0.716,0 -1.11398,-0.77383 -1.20898,-1.54883c-0.209,-1.716 0.88419,-4.48242 2.86719,-4.48242c0.551,0 1.12536,0.19309 1.19336,0.74609c0.109,0.885 -0.77161,0.66278 -0.72461,1.05078c0.044,0.359 0.66283,0.4707 1.04883,0.4707c0.441,0 1.61822,-0.27716 1.44922,-1.66016c-0.135,-1.107 -1.2773,-1.66016 -2.6543,-1.66016c-3.184,0 -5.32309,3.131 -5.12109,5.625c-0.824,0.96 -1.64375,1.54611 -3.09375,2.28711c-0.831,0.415 -1.76548,0.66406 -2.64648,0.66406c-2.644,0 -3.93245,-2.43411 -4.18945,-4.53711c-0.659,-5.394 4.07977,-12.80859 7.38477,-12.80859c0.771,0 1.45989,0.66984 1.58789,1.71484c0.198,1.626 0.16537,2.77859 -1.51562,4.18359c-0.184,0.153 -0.23758,0.40183 -0.14258,0.54883c0.143,0.22 0.59481,0.2413 1.50781,-0.2207c1.788,-0.902 2.43333,-2.2952 2.23633,-3.9082c-0.219,-1.79 -1.781,-3.28711 -3.875,-3.28711zM63.29883,47.07227c0.303,0 0.6875,0.44345 0.6875,1.43945c0,0.526 -0.10873,1.05213 -0.30273,1.57813c-0.496,-0.526 -0.88086,-1.32852 -0.88086,-2.10352c0,-0.415 0.13709,-0.91406 0.49609,-0.91406z"></path></g></g></g></svg>